<?xml version="1.0" encoding="utf-8"?>
<!-- Generator: Adobe Illustrator 16.0.0, SVG Export Plug-In . SVG Version: 6.00 Build 0)  -->
<!DOCTYPE svg PUBLIC "-//W3C//DTD SVG 1.1//EN" "http://www.w3.org/Graphics/SVG/1.1/DTD/svg11.dtd">
<svg version="1.1" id="Layer_1" xmlns="http://www.w3.org/2000/svg" xmlns:xlink="http://www.w3.org/1999/xlink" x="0px" y="0px"
	 viewBox="0 153.25 612 485.5" enable-background="new 0 153.25 612 485.5" xml:space="preserve">
<g>
	<path d="M612,172.625c0-11.625-10.2-19.375-25.5-19.375h-561C10.2,153.25,0,161,0,172.625v38.75C0,223,10.2,230.75,25.5,230.75h561
		c15.3,0,25.5-7.75,25.5-19.375V172.625z"/>
	<path d="M612,376.625c0-11.625-10.2-19.375-25.5-19.375h-561C10.2,357.25,0,365,0,376.625v38.749C0,427,10.2,434.75,25.5,434.75
		h561c15.3,0,25.5-7.75,25.5-19.376V376.625z"/>
	<path d="M612,580.625c0-11.624-10.2-19.375-25.5-19.375h-561c-15.3,0-25.5,7.751-25.5,19.375v38.75C0,631,10.2,638.75,25.5,638.75
		h561c15.3,0,25.5-7.75,25.5-19.375V580.625z"/>
</g>
</svg>
